<?xml version="1.0" standalone="no"?>
<!DOCTYPE svg PUBLIC "-//W3C//DTD SVG 1.1//EN" "http://www.w3.org/Graphics/SVG/1.1/DTD/svg11.dtd" >
<svg xmlns="http://www.w3.org/2000/svg">
<metadata>Generated by IcoMoon</metadata>
<defs>
<font id="icomoon" horiz-adv-x="1024">
<font-face units-per-em="1024" ascent="960" descent="-64" />
<missing-glyph horiz-adv-x="1024" />
<glyph unicode="&#x20;" d="" horiz-adv-x="512" />
<glyph unicode="&#xe600;" d="M493.668 885.024c-2.829 0.025-5.661 0.020-8.496-0.012-75.611-0.866-153.127-22.323-220.356-73.72 122.52 23.745 211.526 23.461 333.412-77.488 66.953-55.452 96.864-137.648 96.864-137.648s25.903 35.038 71.372 54.040c68.314 28.549 106.040 12.236 106.040 12.236s-104.77 159.014-255.924 203.92c-38.777 11.52-80.471 18.298-122.912 18.672zM224.272 812.436c-47.098-0.277-96.649-19.941-137.623-56.641 1.624 2.373-12.325-10.759-24.962-25.846-54.157-64.651-68.765-146.711-43.061-207.89 33.463 135.188 133.633 244.221 265.536 294.772-47.572-2.729-74.148-2.966-100.69-9.112zM382.524 806.876c-29.024 0.055-59.124-4.116-91.928-10.072-156.85-65.488-259.362-210.846-262.908-372.796 24.057-22.27 57.643-49.656 101.4-77.42-5.901-13.252-11.833-27.698-17.82-43.816l18.732-6.956c5.489 14.777 10.888 28.004 16.244 40.204 20.229-12.123 42.35-24.203 66.572-35.848-6.258-17.338-11.863-36.699-16.588-58.852l24.564-5.24c4.313 20.219 9.281 37.824 14.796 53.548 23.364-10.405 48.44-20.343 75.3-29.508-4.118-18.012-6.809-37.783-7.58-59.912l30.008-1.044c0.669 19.207 2.808 36.247 6.104 51.756 18.059-5.525 36.813-10.709 56.364-15.428 148.661-35.884 300.019-30.507 412.632-16.716-99.102 15.128-169.618 123.387-160.832 246.916 2.591 34.361 11.282 67.774 25.452 97.848-7.554 24.809-35.173 105.964-86.54 152.168-77.342 69.568-138.169 91.043-203.972 91.168zM309.504 763.836c20.789-0.525 39.268-7.927 51.498-22.537 5.747-6.865 9.685-14.809 11.915-23.462 9.057-35.144-10.053-81.99-50.491-115.841-9.956-8.335-20.461-15.258-31.133-20.734-43.342-22.241-89.442-20.613-112.783 7.27-5.747 6.865-9.685 14.809-11.915 23.462-9.057 35.144 10.053 81.99 50.491 115.841 9.956 8.335 20.461 15.258 31.133 20.734 25.119 12.89 51.164 17.763 73.169 14.154zM318.444 712.156c-10.064-0.24-21.071-5.408-30.581-14.403-0.954-0.437-5.881-5.708-10.101-11.934-11.038-16.283-14.217-34.639-9.468-47.386 1.816-4.873 4.791-8.927 8.928-11.731 10.823-7.337 26.638-4.118 40.335 6.746 5.237 4.153 10.164 9.424 14.384 15.649 11.038 16.283 14.217 34.639 9.468 47.386-1.816 4.873-4.791 8.927-8.928 11.731-4.156 2.817-9.048 4.078-14.273 3.948zM502.428 689.428c6.765 0.090 14.237-0.874 21.562-2.945-15.007 2.658-7.815 1.333-0.784-1.041-2.599 0.848-0.949 0.334 0.692-0.237 49.968-17.389 73.337-81.7 53.945-145.62-0.637-2.099-1.32-4.197-2.049-6.294-22.217-63.842-79.578-102.333-130.043-88.419-1.659 0.457-3.31 0.971-4.952 1.543-49.966 17.388-73.336 81.696-53.947 145.615 0.637 2.1 1.32 4.2 2.051 6.298 19.722 56.673 67.139 93.369 112.841 91.162zM846.476 656.676c-92.803-0.87-171.882-84.968-180.216-194.348 0-0.001 0-0.002 0-0.003-8.726-114.543 63.433-213.435 161.172-220.881s184.045 79.374 192.772 193.916c0 0.001 0 0.002 0 0.003 8.726 114.543-63.433 213.435-161.172 220.881-4.415 0.336-8.804 0.479-13.165 0.436zM477.528 649.936c0 0 0 0 0 0-25.722 0-46.575-23.474-46.576-52.432 0-0.001 0-0.001 0-0.002 0-28.959 20.853-52.434 46.576-52.434 0 0 0 0 0 0s0 0 0 0c25.723 0 46.576 23.476 46.576 52.434 0 0.001 0 0.001 0 0.002-0.001 28.958-20.853 52.432-46.576 52.432 0 0 0 0 0 0zM919.984 500.856c34.561 0 62.579-28.405 62.58-63.444 0-0.001 0-0.002 0-0.003 0-35.040-28.018-63.445-62.58-63.445s-62.58 28.406-62.58 63.445c0 0.001 0 0.002 0 0.003 0.001 35.039 28.018 63.444 62.58 63.444zM28.664 383.76c17.659-217.248 209.403-385.033 440.076-385.092 151.23 0.196 288.947 87.909 369.732 208.668-126.736-31.22-360.352-60.6-527.584-26.904-194.475 39.186-234.287 122.55-282.224 203.328z" />
<glyph unicode="&#xe601;" d="M332.937 957.2c-1.736 0.071-3.459-0.38-4.943-1.399-3.958-2.726-4.71-8.507-1.681-12.916l51.037-74.081c-81.146-37.75-138.050-109.484-145.301-193.204h552.523c-7.226 83.72-64.135 155.449-145.276 193.199l51.017 74.086c3.029 4.404 2.275 10.183-1.686 12.916-3.956 2.718-9.628 1.374-12.634-3.035l-53.024-76.958c-34.943 13.765-73.746 21.433-114.644 21.433s-79.713-7.66-114.654-21.433l-53.014 76.963c-1.9 2.752-4.828 4.31-7.721 4.429zM392.896 813.169c16.876 0 30.558-13.684 30.558-30.573 0.002-16.883-13.682-30.568-30.558-30.568-16.888 0-30.568 13.682-30.568 30.568 0 16.883 13.672 30.573 30.568 30.573zM623.721 813.169c16.893 0 30.573-13.689 30.573-30.573s-13.684-30.568-30.573-30.568c-16.876 0-30.553 13.682-30.553 30.568 0 16.888 13.677 30.573 30.553 30.573zM134.934 637.385c-34.040 0-61.635-27.595-61.635-61.635v-249.307c0-34.040 27.595-61.635 61.635-61.635 34.042 0 61.64 27.595 61.64 61.635v249.307c0 34.040-27.597 61.635-61.64 61.635zM881.684 637.385c-34.042 0-61.635-27.595-61.635-61.635v-249.307c0-34.040 27.592-61.635 61.635-61.635 34.040 0 61.635 27.595 61.635 61.635v249.307c0 34.040-27.595 61.635-61.635 61.635zM232.040 635.482v-450.276c0-26.741 21.679-48.422 48.427-48.422h57.28v-138.548c0-34.042 27.592-61.635 61.635-61.635s61.64 27.592 61.64 61.635v138.548h94.58v-138.548c0-34.042 27.59-61.635 61.635-61.635s61.635 27.592 61.635 61.635v138.548h57.285c26.748 0 48.432 21.669 48.432 48.422v450.276h-552.548z" />
<glyph unicode="&#xe602;" d="M240.174 954.773v-139.618h47.066v46.754h43.055v-46.754h47.070v139.618h-47.070v-46.106h-43.055v46.106h-47.066zM397.825 954.773v-46.3h41.437v-93.318h47.070v93.318h41.453v46.3h-129.961zM548.413 954.773v-139.618h46.054v69.203l32.407-49.641h0.809l32.383 49.641v-69.203h46.875v139.618h-49.098l-30.16-49.056-30.192 49.056h-49.078zM730.364 954.773v-139.618h113.274v46.15h-66.191v93.468h-47.082zM158.367 769.239l67.331-748.709 302.132-83.156 302.968 83.275 67.402 748.59h-739.833zM296.040 616.193h463.938l-2.215-24.637-4.223-46.552-1.856-20.64h-354.425l8.465-94.029h337.53l-2.259-24.657-21.766-241.751-1.39-15.514-189.982-52.215-189.723 52.216-12.979 144.183h92.977l6.593-73.239 103.239-27.583 103.299 27.642 10.752 119.092h-320.994l-24.981 277.683z" />
<glyph unicode="&#xe603;" d="M50.926 904.715v-921.971h921.971v921.971h-921.971zM751.917 484.706c55.611 0 95.124-19.025 122.93-68.782l-67.319-43.903c-14.634 26.342-30.732 36.586-55.611 36.586s-40.977-16.098-40.977-36.586c0-26.342 16.098-36.586 52.684-52.684l21.952-8.781c73.172-32.196 115.612-64.392 115.612-136.101 0-77.563-61.465-120.003-143.418-120.003-80.49 0-133.174 38.050-158.052 87.807l70.245 42.44c19.025-30.732 42.44-52.684 84.88-52.684 36.586 0 58.538 17.561 58.538 42.44 0 29.269-23.415 39.513-62.928 57.074l-21.952 8.781c-62.928 26.342-103.905 60.001-103.905 130.247 0 64.392 49.757 114.149 127.32 114.149zM466.545 480.316h86.343v-295.616c0-89.27-52.684-130.247-128.783-130.247-68.782 0-109.759 36.586-130.247 79.026l67.319 43.903c16.098-24.879 29.269-45.367 58.538-45.367 27.805 0 46.83 11.708 46.83 54.148v294.153z" />
<glyph unicode="&#xe604;" d="M508.397 950.98c-256.991 0-240.943-111.447-240.943-111.447l0.286-115.458h245.241v-34.666h-342.649c0 0-164.449 18.65-164.449-240.657s143.535-250.111 143.535-250.111h85.662v120.328c0 0-4.617 143.535 141.243 143.535s243.235 0 243.235 0c0 0 136.659-2.209 136.659 132.075s0 222.034 0 222.034c0 0 20.749 134.367-247.819 134.367zM373.171 873.339c24.4 0 44.12-19.721 44.12-44.12s-19.721-44.12-44.12-44.12c-24.4 0-44.12 19.721-44.12 44.12s19.721 44.12 44.12 44.12zM515.695-56.076c256.991 0 240.943 111.447 240.943 111.447l-0.286 115.458h-245.241v34.666h342.649c0 0 164.449-18.65 164.449 240.657s-143.535 250.111-143.535 250.111h-85.662v-120.328c0 0 4.617-143.535-141.243-143.535s-243.235 0-243.235 0c0 0-136.659 2.209-136.659-132.075s0-222.034 0-222.034c0 0-20.749-134.367 247.819-134.367zM650.921 21.565c-24.4 0-44.12 19.721-44.12 44.12s19.721 44.12 44.12 44.12c24.4 0 44.12-19.721 44.12-44.12s-19.721-44.12-44.12-44.12z" />
<glyph unicode="&#xe605;" d="M530.278 955.331c-0.048 0-0.101-0.008-0.148-0.008l0.148-12.28c39.106-0.055 67.105-10.278 87.68-26.688s33.903-39.294 42.5-65.412c17.193-52.236 14.89-116.839 14.384-162.676v-0.004c-0.677-62.152 33.818-104.311 67.624-146.952l0.060-0.076 0.064-0.076c30.035-35.497 69.181-87.279 91.436-146.116 18.131-47.934 25.033-100.389 7.28-153.040l-10.976-14.164c-4.27 0.51-8.693 0.557-13.392 0.444-2.884-0.070-5.854-0.219-8.892-0.34-15.235-17.515-51.317-38.986-76.344-32.392-22.868 5.769-35.799 32.421-37.412 58.556-0.648-0.32-1.3-0.657-1.956-1.016-14.145-7.74-22.13-21.515-27.2-41.852s-6.756-46.694-8.284-76.876v-0.072c-1.444-23.556-12.235-52.538-19.744-80.764-5.814-21.856-9.321-42.809-6.484-59.036l-6.508 2.912-5.116-0.284c-41.217-2.289-77.708 10.71-109.572 8.176-44.604-2.464-72.498-12.954-95.692-13.068l-11.064 3.804c1.455 4.879 2.424 10.224 2.868 16.060l0.004 0.080 0.008 0.080c1.864 18.599-12.445 42.899-30.936 67.108s-40.312 47.938-50.652 69.52l-0.012 0.032-0.016 0.036c-12.868 27.629-25.384 52.537-38.836 70.784s-27.416 29.439-43.428 31.864c-2.38 0.36-4.613 0.54-6.724 0.548l-0.004-0.004h-0.42c-7.469-0.052-13.381-2.246-18.7-5.932l-6.98 8.592c-5 32.971 0.394 68.215 12.004 103.092 24.6 73.9 77.064 145.836 114.344 190.168l0.172 0.204 0.152 0.216c32.531 46.242 42.449 84.562 45.772 131.636l0.008 0.176c1.408 33.564-9.713 95.802 0.864 151.42 5.289 27.809 15.835 53.588 35.552 73.288s48.79 33.707 92.608 37.236l-0.004-0.004c6.951 0.554 13.599 0.822 19.956 0.812l-0.14 12.28c-6.663 0.006-13.59-0.265-20.796-0.84h-0.004c-46.004-3.705-78.346-18.852-100.304-40.792s-33.351-50.294-38.94-79.684c-11.17-58.737 0.167-123.098-1.072-153.116-3.243-45.806-12.172-80.711-43.508-125.276-37.811-45.006-90.886-117.435-116.32-193.84-11.66-35.029-17.296-70.963-12.74-105.5-0.944-0.917-1.931-1.811-2.816-2.756-11.659-12.448-19.938-26.801-28.172-35.536-6.97-6.907-17.983-10.107-31.508-14.96-13.021-4.672-28.372-12.382-38.312-29.152l-0.544-0.136-1.24-2.436-0.028-0.052-0.004-0.004c-0.001-0.002 0.001-0.006 0-0.008 0.043 0.084 0.030 0.073-0.064-0.116l-0.6-1.152v-0.536c-8.055-16.651-5.535-34.693-3.164-50.164 2.454-16.010 4.336-30.783 1.86-38.492-10.693-29.315-12.635-51.029-4.072-67.712 8.644-16.838 26.162-23.884 44.108-27.632 35.755-7.468 81.568-5.905 116.32-24.324l0.064-0.032 5.364-2.844 0.112 0.212c38.6-19 77.621-25.919 109.908-18.544 23.432 5.352 43.081 19.278 53.96 40.372 25.419 1.027 51.612 10.507 92.54 12.76l0.076 0.004 0.080 0.008c26.574 2.141 62.68-9.631 104.824-8.264 1.080-3.365 2.032-6.769 3.696-9.956 0.012-0.022 0.085-0.167 0.048-0.096l-0.028 0.064c17.576-35.147 51.102-51.786 86.048-49.028 33.287 2.627 67.717 21.44 96.060 53.216l0.232-0.192 3.92 4.752c25.289 30.653 68.759 44.045 99.504 62.588 15.476 9.334 29.593 22.151 30.684 41.232 1.049 18.361-9.369 37.415-30.48 61.248v1.968l-2.14 0.856c-5.033 6.411-8.807 20.19-12.356 35.632-3.692 16.065-7.908 35.010-22.96 47.832-0.002 0.001-0.047 0.042-0.036 0.032l-0.004 0.004c-4.169 3.632-8.523 6.223-12.908 8.388 16.683 54.143 9.331 107.874-8.9 156.072-23.065 60.977-63.006 113.592-93.424 149.556-33.877 42.731-65.591 81.622-64.964 139.184 0.502 45.516 3.223 111.292-15 166.656-9.111 27.681-23.598 52.904-46.507 71.175s-54.065 29.311-95.332 29.368h-0.012zM550.090 806.215c-9.31-0.087-17.177-2.884-25.176-8.96s-13.682-13.549-18.272-23.952c-4.589-10.403-6.555-20.631-6.424-32.564v-0.916c0.076-3.367 0.313-6.591 0.724-9.712 7.217-1.718 14.908-4.49 23.068-8.556-0.56 3.227-0.791 6.552-0.716 10.18 0 0.262 0 0.482 0.044 0.744 0.218 6.6 1.355 12.149 3.672 17.744s5.113 9.617 8.872 12.764c3.583 3 7.048 4.368 11.036 4.38 0.196 0 0.393 0.001 0.592-0.012 4.24-0.131 7.779-1.707 11.32-5.16s5.989-7.602 7.912-13.372c1.836-5.507 2.667-10.886 2.536-17.18 0-0.306-0.088-0.526-0.088-0.788-0.218-6.556-1.355-12.062-3.672-17.7-1.534-3.733-3.278-6.718-5.372-9.236 5.778-2.005 12.711-4.469 21.748-8.34 1.304-0.536 2.562-1.095 3.772-1.676 3.565 4.313 6.546 9.296 9.14 15.232 4.546 10.403 6.598 20.588 6.512 32.564-0.089 0.306-0.088 0.566-0.088 0.872-0.219 11.671-2.447 21.507-7.080 31.56-4.721 10.315-10.578 17.703-18.708 23.604-8.003 5.809-15.794 8.48-24.916 8.48h-0.436zM425.67 796.331c-0.513 0.002-1.030-0.010-1.552-0.040-6.687-0.35-12.237-3.104-17.744-8.568s-9.311-12.105-12.152-21.284c-2.841-9.179-3.848-18.053-3.28-28.368v-0.088c0.612-10.315 2.666-19.058 6.512-27.8 3.247-7.38 6.963-12.984 11.724-17.444 2.183 1.609 4.063 2.987 5.64 4.144 2.459 1.807 3.891 2.871 6.892 5.18-0.476 0.335-0.953 0.711-1.436 1.128-2.885 2.491-5.117 5.726-7.040 10.272-1.88 4.415-2.928 8.787-3.452 14.032 0 0.218-0.044 0.393-0.044 0.612-0.481 5.42-0.177 10.14 0.96 14.948s2.712 8.435 5.116 11.364c2.404 2.929 4.94 4.414 8 4.676 0.287 0.025 0.571 0.040 0.852 0.040 2.718 0.020 5.186-1.018 7.8-3.276 2.885-2.491 5.069-5.723 7.036-10.312 1.836-4.415 2.931-8.787 3.456-13.988 0-0.218 0-0.393 0.044-0.612 0.376-3.916 0.302-7.43-0.188-10.892 5.012 3.309 10.763 6.37 17.288 8.616 1.149 0.396 2.319 0.764 3.516 1.104 0.342 3.95 0.376 8.028 0.1 12.36v0.088c-0.568 10.315-2.622 19.058-6.468 27.8s-8.436 14.948-14.512 19.8c-5.601 4.473-11.017 6.494-17.068 6.508zM482.454 724.767v-0.004c-7.367-0.029-13.949-1.337-19.848-3.368-17.139-5.9-28.511-18.201-35.644-24.952l-0.004-0.012c-0.008-0.008-0.018-0.012-0.024-0.024-1.39-1.334-3.204-2.534-7.568-5.736-4.392-3.223-10.987-8.062-20.48-15.176-8.443-6.328-11.176-14.56-8.26-24.204s12.203-20.77 29.22-30.388l0.028-0.012 0.028-0.016c10.565-6.204 17.781-14.562 26.060-21.216s17.434-11.855 32.752-12.748c17.993-1.041 31.226 4.353 42.92 11.040s21.616 14.848 32.992 18.544l0.024 0.008 0.020 0.008c23.33 7.285 39.956 21.958 45.164 35.9 2.604 6.971 2.531 13.597-0.58 19.708s-9.482 11.912-20.332 16.364l-0.028 0.012-0.024 0.012c-22.551 9.659-32.346 10.343-44.932 18.528-20.49 13.174-37.415 17.786-51.48 17.732h-0.004zM580.806 666.599l0.46-7.68c-3.459-0.206-9.435-2.691-16.536-6.656s-15.456-9.261-24.652-14.568c-18.392-10.613-40.217-21.4-63.288-21.4-23.039 0-41.252 10.65-54.348 21.028-6.548 5.189-11.869 10.34-15.872 14.088-2.001 1.874-3.685 3.4-4.9 4.336-0.748 0.577-1.391 0.799-1.52 0.884-0.080 0.053 0.122-0.008 0.32 1.936l0.132 5.808c2.765 0 4.112-1.259 5.764-2.532s3.422-2.904 5.464-4.816c4.084-3.824 9.195-8.768 15.388-13.676 12.386-9.816 28.902-19.364 49.572-19.364 20.638 0 41.404 9.957 59.444 20.368 9.020 5.205 17.342 10.492 24.744 14.624s13.759 7.258 19.828 7.62zM601.314 638.991c-8.92-12.727-24.597-23.639-44.312-29.804-0.014-0.006-0.018-0.008-0.040-0.016-9.33-3.045-19.177-10.847-31.504-17.896-12.346-7.060-27.417-13.18-47.188-12.036-16.939 0.987-28.149 7.215-37.124 14.428-8.957 7.198-15.872 15.125-25.080 20.548-0.006 0.004-0.014 0.004-0.020 0.012-3.147 1.79-10.213 6.555-12.268 8.048-3.987-75.183-54.182-169.515-78.18-223.912-16.475-39.203-26.287-81.114-27.444-122.208-43.312 57.745-11.681 131.721 5.24 163.776 18.88 35.060 21.829 44.698 17.244 41.324-17.032-27.782-43.723-72.050-54.112-117.568-5.413-23.714-6.399-47.736 0.624-69.948 7.022-22.21 22.026-42.667 48.852-59.356l0.004-0.004c36.515-22.394 61.364-44.809 76.036-64.668 14.673-19.861 19.279-37.251 14.696-49.58-2.292-6.164-6.927-10.966-13.52-13.956-5.302-2.404-11.863-3.666-19.58-3.66 3.923-4.928 7.87-9.93 11.712-14.96 6.016-7.876 11.861-15.86 16.956-23.92 75.179-51.306 163.726-31.588 227.524 13.92 6.34 21.782 12.589 42.347 13.524 57.552v0.012c1.531 30.238 3.121 57.137 8.668 79.388 5.551 22.269 15.533 40.426 33.82 50.432 2.933 1.605 5.858 2.894 8.768 3.904 0.206 1.881 0.476 3.735 0.812 5.556 5.245 34.749 36.279 36.454 75.224 19.32 37.548-16.989 51.641-31.826 45.28-51.948 0.229 0.006 0.457 0.010 0.688 0.016 2.468 0.060 5 0.071 7.572-0.020 7.811 25.385-8.436 43.983-52.36 65.372-2.952 1.398-5.864 2.692-8.732 3.884 5.862 23.829 4.696 47.973-0.768 70.94-11.983 50.368-44.916 94.994-70.004 117.18-4.628 0.192-4.18-3.865 5.156-12.924 23.124-21.28 73.692-97.696 46.328-168.636-7.82 2-15.124 2.967-21.756 2.764-10.466 57.827-34.688 105.822-46.864 128.412-22.907 42.579-58.548 129.827-73.872 190.232zM94.102 171.659c-0.049-0.093-0.119-0.151-0.168-0.244 0.004 0.008 0.036 0.092 0.036 0.092s0.112 0.13 0.132 0.152zM249.646-20.673c0.347-0.161 0.694-0.323 1.040-0.488l-1.864-3.456z" />
<glyph unicode="&#xe606;" d="M527.268 952.83c-6.535 0.010-13.351-0.262-20.459-0.829-179.645-14.468-132.002-204.254-134.668-267.807-3.281-46.476-12.704-83.102-44.668-128.538-37.553-44.658-90.424-116.937-115.471-192.176-11.821-35.51-17.446-71.704-12.251-105.96-1.627-1.457-3.176-2.984-4.65-4.557-11.026-11.771-19.172-26.033-28.25-35.635-8.481-8.46-20.564-11.678-33.842-16.442-13.283-4.766-27.867-11.792-36.72-28.78 0 0 0-0.006-0.008-0.008-0.014-0.028-0.030-0.055-0.045-0.083v0c-8.014-14.968-5.631-32.205-3.184-48.175s4.925-31.060 1.636-41.298c-10.513-28.734-11.855-48.61-4.454-63.028 7.416-14.447 22.665-20.824 39.9-24.424 34.469-7.199 81.149-5.41 117.939-24.909l3.162 5.966-3.129-5.984c39.385-20.591 79.313-27.905 111.169-20.629 23.096 5.275 41.845 19.028 51.473 40.189 24.916 0.122 52.258 10.675 96.055 13.087 29.712 2.393 66.828-10.551 109.521-8.181 1.116-4.632 2.731-9.087 4.942-13.32 0.022-0.044 0.044-0.086 0.066-0.129 16.55-33.094 47.301-48.231 80.071-45.645 32.814 2.59 67.702 21.938 95.904 55.5l-5.17 4.345 5.21-4.297c26.88 32.593 71.497 46.108 101.082 63.952 14.792 8.922 26.795 20.094 27.722 36.32 0.927 16.218-8.594 34.393-30.489 58.696 0 0 0 0.006 0 0.006-0.022 0.012-0.022 0.020-0.027 0.030-7.194 8.129-10.626 23.196-14.314 39.241-3.685 16.035-7.799 33.333-20.964 44.543v0c-0.027 0.024-0.053 0.044-0.080 0.067 0 0 0 0 0 0-5.239 4.566-10.684 7.664-16.167 9.746 18.303 54.282 11.122 108.335-7.354 157.179-22.675 59.946-62.262 112.179-92.495 147.911-33.841 42.686-66.941 83.212-66.289 143.069 1.008 91.354 10.049 260.768-150.707 260.987zM549.031 812.090c9.122 0 16.913-2.674 24.916-8.482 8.13-5.901 13.987-13.288 18.708-23.603 4.633-10.053 6.862-19.888 7.081-31.558 0-0.306 0-0.568 0.089-0.874 0.086-11.976-1.967-22.161-6.513-32.563-2.594-5.936-5.573-10.918-9.138-15.231-1.21 0.581-2.468 1.14-3.771 1.676v0c-9.037 3.871-15.97 6.334-21.748 8.339 2.094 2.518 3.838 5.504 5.372 9.236 2.317 5.638 3.453 11.146 3.671 17.702 0 0.262 0.086 0.481 0.086 0.787 0.131 6.294-0.699 11.67-2.535 17.178-1.923 5.77-4.371 9.922-7.911 13.375s-7.081 5.027-11.321 5.158c-0.199 0.012-0.397 0.012-0.593 0.012-3.988-0.012-7.451-1.38-11.034-4.379-3.759-3.147-6.556-7.168-8.873-12.763s-3.453-11.146-3.672-17.746c-0.044-0.262-0.044-0.481-0.044-0.743-0.075-3.628 0.155-6.951 0.714-10.179-8.16 4.066-15.85 6.838-23.068 8.556-0.411 3.121-0.649 6.341-0.725 9.709v0.918c-0.131 11.933 1.836 22.161 6.425 32.563s10.272 17.877 18.271 23.953c7.999 6.076 15.866 8.873 25.177 8.96 0.146 0 0.291 0 0.436 0zM424.178 802.205c6.051-0.014 11.466-2.036 17.067-6.509 6.076-4.852 10.665-11.058 14.511-19.8s5.901-17.484 6.469-27.799v-0.087c0.275-4.332 0.242-8.41-0.1-12.36-1.197-0.34-2.37-0.708-3.519-1.104-6.525-2.246-12.275-5.307-17.287-8.616 0.49 3.462 0.563 6.974 0.187 10.891-0.044 0.219-0.044 0.393-0.044 0.612-0.525 5.201-1.617 9.572-3.453 13.987-1.967 4.589-4.152 7.824-7.037 10.315-2.614 2.258-5.084 3.295-7.802 3.274-0.281 0-0.565-0.014-0.852-0.039-3.060-0.262-5.595-1.748-7.999-4.677s-3.978-6.556-5.114-11.364c-1.136-4.808-1.442-9.529-0.962-14.949 0-0.219 0.044-0.394 0.044-0.612 0.524-5.245 1.574-9.616 3.453-14.031 1.923-4.546 4.152-7.78 7.037-10.272 0.483-0.417 0.961-0.792 1.437-1.127-3.001-2.309-4.433-3.374-6.892-5.181-1.577-1.157-3.455-2.535-5.638-4.144-4.761 4.46-8.475 10.065-11.722 17.445-3.846 8.742-5.901 17.484-6.513 27.799v0.087c-0.568 10.315 0.437 19.188 3.278 28.367s6.644 15.823 12.151 21.287c5.507 5.464 11.059 8.217 17.746 8.567 0.522 0.029 1.040 0.042 1.553 0.040zM480.961 730.641c14.065 0.054 30.99-4.557 51.48-17.731 12.586-8.185 22.379-8.869 44.93-18.527l0.053-0.025c10.85-4.452 17.219-10.255 20.33-16.365s3.188-12.737 0.583-19.707c-5.208-13.942-21.834-28.614-45.164-35.899l-0.043-0.016c-11.376-3.696-21.295-11.858-32.99-18.545s-24.927-12.080-42.92-11.039c0 0 0 0 0 0-15.318 0.893-24.474 6.093-32.753 12.747s-15.494 15.013-26.059 21.217l-0.027 0.014-0.028 0.014c-17.017 9.618-26.308 20.743-29.224 30.388s-0.179 17.877 8.264 24.204c9.493 7.114 16.087 11.953 20.479 15.177 4.364 3.202 6.179 4.403 7.569 5.737 0.006 0.012 0.014 0.014 0.022 0.022 0 0 0.006 0.012 0.006 0.012 7.132 6.751 18.502 19.052 35.641 24.951 5.899 2.031 12.481 3.341 19.848 3.37zM579.312 672.473c-6.069-0.362-12.426-3.487-19.828-7.619s-15.725-9.418-24.745-14.623c-18.040-10.411-38.807-20.367-59.445-20.367-20.67 0-37.184 9.546-49.571 19.362-6.193 4.908-11.305 9.851-15.388 13.676-2.042 1.912-3.813 3.542-5.465 4.815s-2.997 2.535-5.761 2.535l-0.133-5.809c-0.198-1.944-0.401-1.884-0.321-1.937 0.129-0.085 0.77-0.306 1.519-0.882 1.215-0.936 2.901-2.461 4.902-4.335 4.003-3.748 9.321-8.902 15.869-14.091 13.096-10.378 31.309-21.026 54.348-21.026 23.071 0 44.9 10.784 63.291 21.397 9.196 5.307 17.548 10.604 24.649 14.569s13.077 6.451 16.536 6.658l-0.459 7.679zM599.82 644.864c15.324-60.405 50.964-147.653 73.872-190.231 12.176-22.59 36.4-70.586 46.866-128.413 6.632 0.203 13.934-0.76 21.754-2.76 27.364 70.94-23.204 147.352-46.328 168.632-9.336 9.059-9.784 13.118-5.156 12.926 25.088-22.186 58.023-66.81 70.006-117.178 5.464-22.967 6.629-47.112 0.766-70.94 2.868-1.192 5.781-2.487 8.733-3.885 43.924-21.389 60.169-39.988 52.358-65.373-2.572 0.090-5.103 0.080-7.571 0.020-0.231-0.006-0.459-0.012-0.688-0.018 6.361 20.122-7.731 34.962-45.279 51.951-38.945 17.134-69.979 15.429-75.224-19.32-0.336-1.821-0.606-3.676-0.811-5.557-2.91-1.010-5.835-2.3-8.768-3.905-18.287-10.006-28.269-28.162-33.82-50.431-5.547-22.251-7.137-49.15-8.668-79.389 0-0.006 0-0.012 0-0.014-0.935-15.205-7.187-35.77-13.527-57.552-63.798-45.508-152.344-65.225-227.522-13.919-5.095 8.060-10.939 16.045-16.955 23.921-3.842 5.030-7.788 10.029-11.711 14.957 7.717-0.006 14.277 1.258 19.579 3.662 6.593 2.99 11.225 7.791 13.517 13.956 4.583 12.329-0.020 29.721-14.693 49.582-14.672 19.859-39.522 42.272-76.037 64.666 0 0-0.006 0-0.006 0.006-26.826 16.689-41.828 37.146-48.851 59.356-7.023 22.212-6.038 46.231-0.626 69.945 10.389 45.518 37.082 89.787 54.113 117.569 4.585 3.374 1.638-6.263-17.242-41.323-16.921-32.055-48.555-106.031-5.242-163.776 1.157 41.094 10.971 83.006 27.447 122.209 23.998 54.397 74.192 148.729 78.178 223.912 2.055-1.493 9.119-6.258 12.266-8.048 0.006-0.008 0.014-0.008 0.020-0.012 9.208-5.423 16.124-13.349 25.081-20.548 8.975-7.213 20.187-13.443 37.126-14.43v0c19.771-1.144 34.84 4.98 47.186 12.039 12.327 7.049 22.175 14.85 31.505 17.895 0.022 0.008 0.029 0.008 0.042 0.014 19.715 6.165 35.39 17.077 44.31 29.804zM725.039 299.046c7.985 0.037 17.659-2.625 28.247-7.362 28.498-13.157 37.415-24.434 29.635-40.999-6.556-12.501-34.618-32.389-53.85-27.144-19.625 5.070-29.198 33.35-26.007 54.724 1.709 14.514 9.919 20.725 21.975 20.781zM692.796 259.988c1.611-26.137 14.543-52.794 37.412-58.564 25.027-6.594 61.11 14.879 76.345 32.394 3.038 0.121 6.008 0.27 8.892 0.34 13.364 0.323 24.572-0.44 36.025-10.456l0.080-0.068c8.801-7.456 12.984-21.547 16.612-37.332s6.529-32.977 17.41-45.224l0.043-0.037c20.918-23.213 27.642-38.903 27.070-48.918s-7.823-17.449-21.213-25.525c-26.767-16.144-74.194-30.183-104.487-66.877-26.304-31.303-58.379-48.495-86.627-50.725s-52.619 9.495-66.987 38.333l-0.033 0.065-0.033 0.064c-8.914 16.956-5.201 43.716 2.308 71.941s18.297 57.208 19.742 80.764v0.073c1.528 30.182 3.217 56.539 8.287 76.876s13.053 34.111 27.198 41.85c0.659 0.36 1.313 0.7 1.963 1.022zM233.451 258.015c2.111-0.008 4.345-0.185 6.726-0.545 16.012-2.425 29.974-13.621 43.427-31.867s25.97-43.154 38.837-70.783l0.014-0.034 0.014-0.033c10.34-21.582 32.16-45.312 50.651-69.521s32.802-48.509 30.938-67.107l-0.008-0.081-0.006-0.081c-2.411-31.721-20.304-48.99-47.773-55.264-27.46-6.272-64.687-0.020-101.87 19.413-0.012 0.006-0.022 0.012-0.033 0.018-41.138 21.788-90.076 19.624-121.468 26.181-15.7 3.279-25.945 8.209-30.647 17.369s-4.807 25.14 5.185 52.388l0.044 0.12 0.039 0.121c4.942 15.243 1.285 31.921-1.115 47.575s-3.572 29.893 1.773 39.818l0.025 0.045 0.024 0.047c6.844 13.192 16.882 17.908 29.341 22.378s27.232 7.981 38.899 19.672l0.061 0.062 0.060 0.063c10.785 11.378 18.886 25.639 28.367 35.761 8 8.541 16.005 14.201 28.072 14.285 0.14 0 0.28 0 0.421 0z" />
<glyph unicode="&#xe607;" d="M47.283 908.556c-0.234 0-0.421-0.187-0.421-0.421v-927.266c0-0.234 0.187-0.421 0.421-0.421h927.266c0.234 0 0.421 0.187 0.421 0.421v927.266c0 0.234-0.187 0.421-0.421 0.421h-927.266zM735.703 733.372c3.667-0.067 5.672-0.235 5.672-0.235v-111.872c0 0-51.098-2.398-93.972-36.922-47.776-38.472-57.058-81.666-57.058-81.666h95.094l-4.476-115.23-128.654-3.358c0 0-15.715-53.458-38.040-93.976s-55.935-72.718-98.448-101.806c-40.499-27.71-137.606-34.678-137.606-34.678v114.112c0 0 90.618-2.238 138.724 85.024 36.949 67.024 41.576 171.882 115.23 276.329 70.754 100.335 177.862 104.743 203.533 104.277z" />
<glyph unicode="&#xe900;" d="M1024 369.556l-512 397.426-512-397.428v162.038l512 397.426 512-397.428zM896 384v-384h-256v256h-256v-256h-256v384l384 288z" />
<glyph unicode="&#xe938;" d="M320 896h-256v-256h256v256zM384 960v0-384h-384v384h384zM128 832h128v-128h-128zM960 896h-256v-256h256v256zM1024 960v0-384h-384v384h384zM768 832h128v-128h-128zM320 256h-256v-256h256v256zM384 320v0-384h-384v384h384zM128 192h128v-128h-128zM448 960h64v-64h-64zM512 896h64v-64h-64zM448 832h64v-64h-64zM512 768h64v-64h-64zM448 704h64v-64h-64zM512 640h64v-64h-64zM448 576h64v-64h-64zM448 448h64v-64h-64zM512 384h64v-64h-64zM448 320h64v-64h-64zM512 256h64v-64h-64zM448 192h64v-64h-64zM512 128h64v-64h-64zM448 64h64v-64h-64zM512 0h64v-64h-64zM960 448h64v-64h-64zM64 448h64v-64h-64zM128 512h64v-64h-64zM0 512h64v-64h-64zM256 512h64v-64h-64zM320 448h64v-64h-64zM384 512h64v-64h-64zM576 448h64v-64h-64zM640 512h64v-64h-64zM704 448h64v-64h-64zM768 512h64v-64h-64zM832 448h64v-64h-64zM896 512h64v-64h-64zM960 320h64v-64h-64zM576 320h64v-64h-64zM640 384h64v-64h-64zM704 320h64v-64h-64zM832 320h64v-64h-64zM896 384h64v-64h-64zM960 192h64v-64h-64zM576 192h64v-64h-64zM640 256h64v-64h-64zM768 256h64v-64h-64zM832 192h64v-64h-64zM896 256h64v-64h-64zM960 64h64v-64h-64zM640 128h64v-64h-64zM704 64h64v-64h-64zM768 128h64v-64h-64zM832 64h64v-64h-64zM640 0h64v-64h-64zM768 0h64v-64h-64zM896 0h64v-64h-64z" />
<glyph unicode="&#xe948;" d="M512 960c-176.732 0-320-143.268-320-320 0-320 320-704 320-704s320 384 320 704c0 176.732-143.27 320-320 320zM512 444c-108.248 0-196 87.752-196 196s87.752 196 196 196 196-87.752 196-196-87.752-196-196-196zM388 640c0 68.483 55.517 124 124 124s124-55.517 124-124c0-68.483-55.517-124-124-124s-124 55.517-124 124z" />
<glyph unicode="&#xe9aa;" d="M956.29 155.518l-316.29 527.024v213.458h32c17.6 0 32 14.4 32 32s-14.4 32-32 32h-320c-17.6 0-32-14.4-32-32s14.4-32 32-32h32v-213.458l-316.288-527.024c-72.442-120.734-16.512-219.518 124.288-219.518h640c140.8 0 196.73 98.784 124.29 219.518zM241.038 320l206.962 344.938v231.062h128v-231.062l206.964-344.938h-541.926z" />
<glyph unicode="&#xe9bd;" d="M64 768h896v-192h-896zM64 512h896v-192h-896zM64 256h896v-192h-896z" />
<glyph unicode="&#xea10;" d="M864 832l-480-480-224 224-160-160 384-384 640 640z" />
<glyph unicode="&#xea34;" d="M992 448l-480 480v-288h-512v-384h512v-288z" />
<glyph unicode="&#xea38;" d="M32 448l480-480v288h512v384h-512v288z" />
<glyph unicode="&#xea41;" d="M0 448c0-282.77 229.23-512 512-512s512 229.23 512 512-229.23 512-512 512-512-229.23-512-512zM928 448c0-229.75-186.25-416-416-416s-416 186.25-416 416 186.25 416 416 416 416-186.25 416-416zM706.744 290.744l90.512 90.512-285.256 285.254-285.254-285.256 90.508-90.508 194.746 194.744z" />
<glyph unicode="&#xea42;" d="M512 960c-282.77 0-512-229.23-512-512s229.23-512 512-512 512 229.23 512 512-229.23 512-512 512zM512 32c-229.75 0-416 186.25-416 416s186.25 416 416 416 416-186.25 416-416-186.25-416-416-416zM354.744 253.256l90.512-90.512 285.254 285.256-285.256 285.254-90.508-90.508 194.744-194.746z" />
<glyph unicode="&#xea43;" d="M1024 448c0 282.77-229.23 512-512 512s-512-229.23-512-512 229.23-512 512-512 512 229.23 512 512zM96 448c0 229.75 186.25 416 416 416s416-186.25 416-416-186.25-416-416-416-416 186.25-416 416zM317.256 605.256l-90.512-90.512 285.256-285.254 285.254 285.256-90.508 90.508-194.746-194.744z" />
<glyph unicode="&#xea44;" d="M512-64c282.77 0 512 229.23 512 512s-229.23 512-512 512-512-229.23-512-512 229.23-512 512-512zM512 864c229.75 0 416-186.25 416-416s-186.25-416-416-416-416 186.25-416 416 186.25 416 416 416zM669.256 642.744l-90.512 90.512-285.254-285.256 285.256-285.254 90.508 90.508-194.744 194.746z" />
<glyph unicode="&#xea52;" d="M896 960h-768c-70.4 0-128-57.6-128-128v-768c0-70.4 57.6-128 128-128h768c70.4 0 128 57.6 128 128v768c0 70.4-57.6 128-128 128zM448 165.49l-237.254 237.256 90.51 90.508 146.744-146.744 306.746 306.746 90.508-90.51-397.254-397.256z" />
<glyph unicode="&#xea53;" d="M896 960h-768c-70.4 0-128-57.6-128-128v-768c0-70.4 57.6-128 128-128h768c70.4 0 128 57.6 128 128v768c0 70.4-57.6 128-128 128zM896 64h-768v768h768v-768z" />
<glyph unicode="&#xea86;" d="M512 960c-282.77 0-512-229.23-512-512s229.23-512 512-512 512 229.23 512 512-229.23 512-512 512zM256 704h512c9.138 0 18.004-1.962 26.144-5.662l-282.144-329.168-282.144 329.17c8.14 3.696 17.006 5.66 26.144 5.66zM192 256v384c0 1.34 0.056 2.672 0.14 4l187.664-218.942-185.598-185.598c-1.444 5.336-2.206 10.886-2.206 16.54zM768 192h-512c-5.654 0-11.202 0.762-16.54 2.208l182.118 182.118 90.422-105.498 90.424 105.494 182.116-182.12c-5.34-1.44-10.886-2.202-16.54-2.202zM832 256c0-5.654-0.762-11.2-2.206-16.54l-185.6 185.598 187.666 218.942c0.084-1.328 0.14-2.66 0.14-4v-384z" />
<glyph unicode="&#xea8a;" d="M437.006 141.838c0-75.068-46.39-134.392-177.758-139.176-76.984 43.786-141.49 106.952-186.908 182.866 23.69 58.496 97.692 103.046 182.316 102.114 24.022-0.252 46.41-4.114 66.744-10.7 55.908-38.866 101-63.152 112.324-107.448 2.114-8.964 3.282-18.206 3.282-27.656zM512 960c-147.94 0-281.196-62.77-374.666-163.098 36.934 20.452 80.538 32.638 126.902 32.638 67.068 0 256.438 0 256.438 0l-57.304-60.14h-67.31c47.496-27.212 72.752-83.248 72.752-145.012 0-56.692-31.416-102.38-75.78-137.058-43.28-33.802-51.492-47.966-51.492-76.734 0-24.542 51.722-61.098 75.5-78.936 82.818-62.112 99.578-101.184 99.578-178.87 0-78.726-68.936-157.104-185.866-183.742 56.348-21.338 117.426-33.048 181.248-33.048 282.77 0 512 229.23 512 512s-229.23 512-512 512zM768 576v-128h-64v128h-128v64h128v128h64v-128h128v-64h-128zM365.768 620.528c11.922-90.776-27.846-149.19-96.934-147.134-69.126 2.082-134.806 65.492-146.74 156.242-11.928 90.788 34.418 160.254 103.53 158.196 69.090-2.074 128.22-76.542 140.144-167.304zM220.886 317.932c-74.68 0-138.128-25.768-182.842-63.864-24.502 59.82-38.044 125.29-38.044 193.932 0 56.766 9.256 111.368 26.312 162.396 7.374-99.442 77.352-176.192 192.97-176.192 8.514 0 16.764 0.442 24.874 1.022-7.95-15.23-13.622-32.19-13.622-49.982 0-29.97 16.488-47.070 36.868-66.894-15.402 0-30.27-0.418-46.516-0.418z" />
<glyph unicode="&#xea8e;" d="M512 960c-282.77 0-512-229.23-512-512s229.23-512 512-512v384h-128v128h128v96c0 88.366 71.632 160 160 160h160v-128h-160c-17.674 0-32-14.328-32-32v-96h176l-32-128h-144v-367.87c220.828 56.838 384 257.3 384 495.87 0 282.77-229.23 512-512 512z" />
<glyph unicode="&#xea93;" d="M512 960c-282.77 0-512-229.23-512-512s229.23-512 512-512 512 229.23 512 512-229.23 512-512 512zM766.478 578.52c0.252-5.632 0.38-11.296 0.38-16.988 0-173.51-132.070-373.588-373.584-373.588-74.15 0-143.168 21.738-201.276 58.996 10.272-1.218 20.724-1.84 31.322-1.84 61.518 0 118.134 20.992 163.072 56.21-57.458 1.054-105.948 39.020-122.658 91.184 8.018-1.532 16.244-2.36 24.704-2.36 11.976 0 23.578 1.61 34.592 4.61-60.064 12.066-105.326 65.132-105.326 128.75 0 0.554 0 1.104 0.012 1.652 17.7-9.834 37.948-15.742 59.47-16.424-35.232 23.546-58.414 63.736-58.414 109.292 0 24.064 6.476 46.62 17.78 66.010 64.76-79.44 161.51-131.712 270.634-137.19-2.238 9.612-3.4 19.632-3.4 29.924 0 72.512 58.792 131.298 131.304 131.298 37.766 0 71.892-15.944 95.842-41.462 29.908 5.886 58.008 16.814 83.38 31.862-9.804-30.662-30.624-56.394-57.732-72.644 26.56 3.174 51.866 10.232 75.412 20.674-17.594-26.328-39.854-49.454-65.514-67.966z" />
<glyph unicode="&#xea96;" d="M512 960c-282.77 0-512-229.23-512-512s229.23-512 512-512 512 229.23 512 512-229.23 512-512 512zM320 192c-35.346 0-64 28.654-64 64s28.654 64 64 64 64-28.654 64-64-28.654-64-64-64zM496 192c0 132.336-107.664 240-240 240v96c185.272 0 336-150.728 336-336h-96zM688 192c0 115.39-44.936 223.876-126.53 305.47s-190.078 126.53-305.47 126.53v96c141.034 0 273.626-54.922 373.354-154.648 99.724-99.726 154.646-232.318 154.646-373.352h-96z" />
<glyph unicode="&#xeab1;" d="M512.008 947.358c-282.738 0-512.008-229.218-512.008-511.998 0-226.214 146.704-418.132 350.136-485.836 25.586-4.738 34.992 11.11 34.992 24.632 0 12.204-0.48 52.542-0.696 95.324-142.448-30.976-172.504 60.41-172.504 60.41-23.282 59.176-56.848 74.916-56.848 74.916-46.452 31.778 3.51 31.124 3.51 31.124 51.4-3.61 78.476-52.766 78.476-52.766 45.672-78.27 119.776-55.64 149.004-42.558 4.588 33.086 17.852 55.68 32.506 68.464-113.73 12.942-233.276 56.85-233.276 253.032 0 55.898 20.004 101.574 52.76 137.428-5.316 12.9-22.854 64.972 4.952 135.5 0 0 43.006 13.752 140.84-52.49 40.836 11.348 84.636 17.036 128.154 17.234 43.502-0.198 87.336-5.886 128.256-17.234 97.734 66.244 140.656 52.49 140.656 52.49 27.872-70.528 10.35-122.6 5.036-135.5 32.82-35.856 52.694-81.532 52.694-137.428 0-196.654-119.778-239.95-233.79-252.624 18.364-15.89 34.724-47.046 34.724-94.812 0-68.508-0.596-123.644-0.596-140.508 0-13.628 9.222-29.594 35.172-24.566 203.322 67.776 349.842 259.626 349.842 485.768 0 282.78-229.234 511.998-511.992 511.998z" />
<glyph unicode="&#xeada;" d="M842.012 370.52c-13.648 13.446-43.914 20.566-89.972 21.172-31.178 0.344-68.702-2.402-108.17-7.928-17.674 10.198-35.892 21.294-50.188 34.658-38.462 35.916-70.568 85.772-90.576 140.594 1.304 5.12 2.414 9.62 3.448 14.212 0 0 21.666 123.060 15.932 164.666-0.792 5.706-1.276 7.362-2.808 11.796l-1.882 4.834c-5.894 13.592-17.448 27.994-35.564 27.208l-10.916 0.344c-20.202 0-36.664-10.332-40.986-25.774-13.138-48.434 0.418-120.892 24.98-214.738l-6.288-15.286c-17.588-42.876-39.63-86.060-59.078-124.158l-2.528-4.954c-20.46-40.040-39.026-74.028-55.856-102.822l-17.376-9.188c-1.264-0.668-31.044-16.418-38.028-20.644-59.256-35.38-98.524-75.542-105.038-107.416-2.072-10.17-0.53-23.186 10.014-29.212l16.806-8.458c7.292-3.652 14.978-5.502 22.854-5.502 42.206 0 91.202 52.572 158.698 170.366 77.93 25.37 166.652 46.458 244.412 58.090 59.258-33.368 132.142-56.544 178.142-56.544 8.168 0 15.212 0.78 20.932 2.294 8.822 2.336 16.258 7.368 20.792 14.194 8.926 13.432 10.734 31.932 8.312 50.876-0.72 5.622-5.21 12.574-10.068 17.32zM211.646 145.952c7.698 21.042 38.16 62.644 83.206 99.556 2.832 2.296 9.808 8.832 16.194 14.902-47.104-75.124-78.648-105.066-99.4-114.458zM478.434 760.314c13.566 0 21.284-34.194 21.924-66.254s-6.858-54.56-16.158-71.208c-7.702 24.648-11.426 63.5-11.426 88.904 0 0-0.566 48.558 5.66 48.558v0zM398.852 322.506c9.45 16.916 19.282 34.756 29.33 53.678 24.492 46.316 39.958 82.556 51.478 112.346 22.91-41.684 51.444-77.12 84.984-105.512 4.186-3.542 8.62-7.102 13.276-10.65-68.21-13.496-127.164-29.91-179.068-49.862v0zM828.902 326.348c-4.152-2.598-16.052-4.1-23.708-4.1-24.708 0-55.272 11.294-98.126 29.666 16.468 1.218 31.562 1.838 45.102 1.838 24.782 0 32.12 0.108 56.35-6.072 24.228-6.18 24.538-18.734 20.382-21.332v0zM917.806 730.924c-22.21 30.292-53.174 65.7-87.178 99.704s-69.412 64.964-99.704 87.178c-51.574 37.82-76.592 42.194-90.924 42.194h-496c-44.112 0-80-35.888-80-80v-864c0-44.112 35.886-80 80-80h736c44.112 0 80 35.888 80 80v624c0 14.332-4.372 39.35-42.194 90.924v0zM785.374 785.374c30.7-30.7 54.8-58.398 72.58-81.374h-153.954v153.946c22.982-17.78 50.678-41.878 81.374-72.572v0zM896 16c0-8.672-7.328-16-16-16h-736c-8.672 0-16 7.328-16 16v864c0 8.672 7.328 16 16 16 0 0 495.956 0.002 496 0v-224c0-17.672 14.324-32 32-32h224v-624z" />
<glyph unicode="&#xeadf;" d="M60.538 960l82.144-921.63 368.756-102.37 369.724 102.524 82.3 921.476h-902.924zM784.63 658.572h-432.54l10.302-115.75h411.968l-31.042-347.010-231.844-64.254-231.572 64.254-15.83 177.512h113.494l8.048-90.232 125.862-33.916 0.278 0.078 125.934 33.992 13.070 146.55h-391.74l-30.494 341.8h566.214l-10.108-113.024z" />
</font>
</defs>
</svg>
